<svg version="1.1" id="Layer_1" xmlns="http://www.w3.org/2000/svg" x="0px" y="0px"
	 width="100%" viewBox="0 0 1080 1080" enable-background="new 0 0 1080 1080" xml:space="preserve">
<path fill="#CA4D3C" opacity="1.000000" stroke="none"
	d="
M30.000000,286.000000 
	C30.000000,204.857544 30.000000,124.215096 30.000000,43.286423 
	C370.953705,43.286423 711.686951,43.286423 1052.756104,43.286423 
	C1052.833130,44.458324 1052.989624,45.727840 1052.989624,46.997364 
	C1053.000244,375.823547 1052.991577,704.649780 1053.089478,1033.475952 
	C1053.090698,1037.880615 1051.871704,1039.090576 1047.472412,1039.089355 
	C709.646423,1038.991943 371.820404,1039.000000 33.994408,1039.000000 
	C32.850925,1039.000000 31.707439,1039.000000 30.000000,1039.000000 
	C30.000000,788.014771 30.000000,537.257385 30.000000,286.000000 
M717.500000,72.000000 
	C498.073853,72.000000 278.647705,72.000000 59.285835,72.000000 
	C59.285835,385.307129 59.285835,698.042725 59.285835,1010.714172 
	C380.973938,1010.714172 702.376160,1010.714172 1023.714050,1010.714172 
	C1023.714050,697.692627 1023.714050,384.957001 1023.714050,72.000000 
	C921.785522,72.000000 820.142761,72.000000 717.500000,72.000000 
z"/>
<path fill="#CA4D3C" opacity="1.000000" stroke="none"
	d="
M655.000000,230.000000 
	C669.249512,230.333359 683.041626,230.096725 696.739380,231.121918 
	C723.096252,233.094513 749.014648,237.365906 772.772278,249.990036 
	C796.544250,262.621765 812.026917,281.684357 819.192444,307.908417 
	C823.363586,323.173676 824.852966,338.559418 823.846924,354.095520 
	C822.468750,375.378204 814.588379,394.353271 801.377014,411.240997 
	C790.687866,424.904694 776.848938,434.432007 762.125793,442.973114 
	C759.469666,444.513947 756.716492,445.887604 754.008179,447.338440 
	C755.671326,449.884460 757.318909,452.440857 759.000244,454.974854 
	C775.032654,479.137848 790.994202,503.348297 807.129883,527.442078 
	C821.664001,549.144348 836.352600,570.743652 851.056519,592.331421 
	C855.335876,598.614258 859.926880,604.684265 864.301270,610.903687 
	C864.798462,611.610596 864.816345,612.654602 865.128540,613.808533 
	C834.666565,613.808533 804.556763,613.808533 774.557617,613.808533 
	C767.087585,601.745728 759.639404,589.715820 752.188904,577.687256 
	C737.117065,553.354126 722.080017,528.999329 706.956299,504.698486 
	C699.472168,492.672913 691.853149,480.730865 684.202332,468.810669 
	C683.653992,467.956390 682.346313,467.085022 681.384399,467.076843 
	C668.087769,466.963654 654.789795,467.000305 641.104431,467.000305 
	C641.104431,516.028931 641.104431,564.761108 641.104431,613.745850 
	C613.648376,613.745850 586.580688,613.745850 559.256104,613.745850 
	C559.256104,486.000488 559.256104,358.281982 559.256104,230.000000 
	C590.984619,230.000000 622.742310,230.000000 655.000000,230.000000 
M729.005676,382.488708 
	C730.996704,379.739471 733.266663,377.148163 734.928772,374.212677 
	C740.947449,363.583313 741.943970,351.861877 740.842163,340.097626 
	C740.031433,331.440857 737.332825,323.180908 731.042297,316.496063 
	C719.882385,304.636475 705.169556,300.693756 689.987488,299.240021 
	C675.024536,297.807312 659.874207,298.324127 644.805481,298.016907 
	C643.554871,297.991425 642.299377,298.204956 641.322937,298.284790 
	C641.322937,332.427155 641.322937,366.141571 641.322937,400.000000 
	C651.123108,400.000000 660.603577,400.137360 670.077759,399.953522 
	C676.819763,399.822754 683.665039,399.901978 690.267639,398.755524 
	C704.096252,396.354431 717.654724,392.868317 729.005676,382.488708 
z"/>
<path fill="#CA4D3C" opacity="1.000000" stroke="none"
	d="
M264.000000,284.000000 
	C264.000000,267.336945 264.121124,251.172348 263.914124,235.011948 
	C263.862915,231.014877 265.085693,229.890945 269.039673,229.917633 
	C293.366455,230.081894 317.695526,230.087143 342.022186,229.913910 
	C346.061005,229.885162 347.077942,231.169098 347.075073,235.072845 
	C346.983734,359.711548 346.982574,484.350311 347.079041,608.989014 
	C347.082123,612.979126 345.914520,614.109680 341.960327,614.082458 
	C317.966858,613.917053 293.970184,613.860779 269.978241,614.115112 
	C265.060944,614.167236 263.896210,612.673645 263.901825,607.927307 
	C264.029449,500.118317 264.000000,392.309143 264.000000,284.000000 
z"/>
<path fill="#FFF" opacity="1.000000" stroke="none"
	d="
M312.270508,779.767212 
	C300.717773,759.840759 289.451782,740.172119 278.112976,720.545654 
	C277.435242,719.372681 276.175201,718.536133 274.614380,716.968933 
	C277.243103,763.222107 275.381836,808.357788 276.122101,853.737549 
	C263.663910,853.737549 251.592743,853.737549 239.259918,853.737549 
	C239.259918,790.994812 239.259918,728.262634 239.259918,665.000000 
	C243.182739,665.000000 247.124359,665.000000 251.065979,665.000000 
	C263.230896,665.000000 275.398682,664.870789 287.557709,665.138489 
	C289.394958,665.178955 291.976929,666.610107 292.889832,668.172119 
	C308.381714,694.678894 323.650238,721.316040 338.997803,747.907288 
	C348.640686,764.614563 358.337036,781.291016 367.991455,797.991577 
	C368.526001,798.916260 368.896637,799.935791 369.343567,800.911133 
	C369.729034,800.538940 370.114532,800.166687 370.500000,799.794495 
	C370.500000,755.014648 370.500000,710.234741 370.500000,665.227295 
	C382.408325,665.227295 394.479034,665.227295 406.775299,665.227295 
	C406.775299,728.075928 406.775299,790.808044 406.775299,853.996643 
	C390.060211,853.996643 373.449432,854.055908 356.841187,853.879883 
	C355.563538,853.866333 353.814148,852.477295 353.107666,851.252502 
	C339.777039,828.142029 326.569672,804.960388 313.345032,781.788757 
	C313.027405,781.232239 312.806793,780.620422 312.270508,779.767212 
z"/>
<path fill="#FFFFFF" opacity="1.000000" stroke="none"
	d="
M756.000000,805.000000 
	C756.000000,821.471924 756.000000,837.443787 756.000000,853.707397 
	C742.395386,853.707397 728.993591,853.707397 715.294922,853.707397 
	C715.294922,791.079956 715.294922,728.362183 715.294922,665.227417 
	C716.549805,665.157959 717.977051,665.011230 719.404358,665.010254 
	C740.727600,664.995483 762.094116,664.160828 783.360962,665.256226 
	C801.512878,666.191162 819.385437,669.747864 833.121521,683.607056 
	C841.133789,691.691040 844.625000,701.968750 845.793030,712.742554 
	C847.007080,723.939819 846.306824,735.153564 840.851929,745.672363 
	C835.334229,756.312378 827.265564,764.082581 816.828552,769.631897 
	C815.278625,770.455994 813.716980,771.257935 812.019592,772.143799 
	C830.279114,799.223633 848.399475,826.097168 867.213867,854.000000 
	C855.939331,854.000000 846.032593,854.000000 836.125916,854.000000 
	C834.460022,854.000000 832.794128,854.000000 831.128235,854.000000 
	C819.816284,854.000000 819.910339,853.942200 814.061768,844.426880 
	C802.105042,824.973816 789.921936,805.658447 778.125916,786.109131 
	C776.143982,782.824402 774.157410,781.663574 770.491089,781.921570 
	C765.871155,782.246704 761.211060,782.000000 756.000000,782.000000 
	C756.000000,789.638489 756.000000,797.069214 756.000000,805.000000 
M773.382019,748.000000 
	C779.219849,746.876648 785.390991,746.596436 790.823669,744.448486 
	C801.052490,740.403992 803.423401,731.769287 803.203979,721.334961 
	C803.027527,712.944702 800.120361,707.236023 792.506470,703.934937 
	C780.848633,698.880432 768.470154,699.740112 756.262695,698.892395 
	C756.262695,715.630920 756.262695,731.683105 756.262695,748.000000 
	C761.817261,748.000000 767.113464,748.000000 773.382019,748.000000 
z"/>
<path fill="#FFFFFF" opacity="1.000000" stroke="none"
	d="
M609.971558,665.000000 
	C613.446716,665.000000 616.427124,665.000000 619.703003,665.000000 
	C619.703003,676.264648 619.703003,687.336670 619.703003,698.808228 
	C597.396606,698.808228 574.991211,698.808228 552.294006,698.808228 
	C552.294006,712.271301 552.294006,725.342834 552.294006,738.813843 
	C572.941772,738.813843 593.681091,738.813843 614.708923,738.813843 
	C614.708923,750.276794 614.708923,761.348694 614.708923,772.820374 
	C594.051575,772.820374 573.312256,772.820374 552.287781,772.820374 
	C552.287781,788.617737 552.287781,804.022034 552.287781,819.825134 
	C574.620483,819.825134 597.025879,819.825134 619.714478,819.825134 
	C619.714478,831.288208 619.714478,842.359924 619.714478,853.716919 
	C583.373169,853.716919 546.971863,853.716919 510.284973,853.716919 
	C510.284973,791.046082 510.284973,728.314636 510.284973,665.000000 
	C543.297180,665.000000 576.387024,665.000000 609.971558,665.000000 
z"/>
</svg>